<svg width="214" height="423" viewBox="0 0 214 423" fill="none" xmlns="http://www.w3.org/2000/svg">
<path d="M131.265 407.987H144.69L151.076 356.207L131.263 356.208L131.265 407.987Z" fill="#FFB7B7"/>
<path d="M127.841 403.604L154.278 403.603H154.28C158.748 403.603 163.033 405.379 166.193 408.538C169.352 411.698 171.127 415.983 171.128 420.451V420.998L127.842 421L127.841 403.604Z" fill="#2F2E41"/>
<path d="M58.581 407.987H72.006L78.392 356.207L58.579 356.208L58.581 407.987Z" fill="#FFB7B7"/>
<path d="M55.157 403.604L81.5944 403.603H81.5955C86.0637 403.603 90.3489 405.379 93.5084 408.538C96.668 411.698 98.4431 415.983 98.4435 420.451V420.998L55.1578 421L55.157 403.604Z" fill="#2F2E41"/>
<path d="M53.112 173.309V310.025L56.573 398.284H85.127L94.646 232.149L113.682 300.507L125.796 396.553L160.407 394.823L137.045 173.309H53.112Z" fill="#2F2E41"/>
<path d="M86.3058 50.4383C97.7751 50.4383 107.073 41.1407 107.073 29.6714C107.073 18.2022 97.7751 8.90456 86.3058 8.90456C74.8366 8.90456 65.539 18.2022 65.539 29.6714C65.539 41.1407 74.8366 50.4383 86.3058 50.4383Z" fill="#FFB8B8"/>
<path d="M77.721 50L72.192 55.838L67 172.652L128.436 170.922L113.726 68.818L100.747 56.38L94.161 50H77.721Z" fill="#6C63FF"/>
<path d="M69.228 58.5687L73.8914 51L75.285 67.2215C75.285 67.2215 86.5337 103.564 85.6684 135.579C84.8032 167.595 89.9949 242.875 83.0726 243.74C76.1503 244.605 46.7306 246.336 46.7306 240.279C46.7306 234.222 45 73.2785 45 73.2785L69.228 58.5687Z" fill="#2F2E41"/>
<path d="M98.4456 51L110.223 60.2992L136.181 69.8174C136.181 69.8174 136.181 180.574 141.373 206.533C146.565 232.491 156.083 235.087 143.969 235.952C131.855 236.818 132.72 232.491 132.72 232.491C132.72 232.491 97.2434 121.735 98.974 94.0454C100.705 66.3562 96.715 51 98.4456 51Z" fill="#2F2E41"/>
<path d="M66.6592 36.1687C66.6592 36.1687 68.4236 33.0701 68.0134 22.7187C67.6032 12.3673 83.3659 18.2219 96.5374 17.2344C109.709 16.247 106.921 34.5164 106.921 34.5164C106.921 34.5164 107.871 33.4304 109.905 24.613C111.94 15.7956 107.32 7.00879 107.32 7.00879C105.96 -2.25661 98.6281 0.712955 98.6281 0.712955C102.159 2.08751 101.481 5.02664 101.481 5.02664C98.4921 -0.213565 91.1602 2.75598 91.1602 2.75598C81.3816 -3.38033 71.4711 4.70044 71.4711 4.70044C59.6581 7.38144 66.586 16.7759 66.586 16.7759C54.706 22.7795 66.6592 36.1687 66.6592 36.1687Z" fill="#2F2E41"/>
<path d="M45.353 237.808C46.2332 236.878 46.8988 235.766 47.3028 234.55C47.7068 233.335 47.8394 232.046 47.6913 230.774C47.5432 229.502 47.118 228.278 46.4456 227.188C45.7732 226.098 44.8701 225.169 43.7997 224.465L47.5406 204.8L36.1442 199.612L31.2514 227.458C30.1894 229.334 29.8525 231.535 30.3047 233.643C30.7569 235.751 31.9668 237.62 33.705 238.896C35.4432 240.172 37.589 240.766 39.7358 240.565C41.8826 240.365 43.8813 239.384 45.353 237.808V237.808Z" fill="#FFB7B7"/>
<path d="M47.7033 73.2318L45.4058 72C45.4058 72 32.9934 76.693 33.8587 80.1541C34.7241 83.6153 26.9365 204.755 29.5323 209.082C32.1282 213.408 52.8951 209.947 52.8951 209.947L47.7033 73.2318Z" fill="#2F2E41"/>
<path d="M146.7 229.652C145.699 228.852 144.886 227.843 144.318 226.696C143.75 225.548 143.44 224.29 143.411 223.009C143.382 221.729 143.633 220.458 144.148 219.285C144.664 218.113 145.429 217.067 146.392 216.223L139.966 197.264L150.535 190.549L159.234 217.45C160.545 219.162 161.183 221.295 161.027 223.445C160.871 225.596 159.931 227.614 158.387 229.118C156.842 230.622 154.799 231.507 152.645 231.606C150.491 231.704 148.376 231.009 146.7 229.652V229.652Z" fill="#FFB7B7"/>
<path d="M136.557 213.123C136.557 213.123 157.603 213.678 159.575 209.034C161.547 204.39 137.074 85.4922 137.452 81.9446C137.83 78.397 124.887 75.4666 124.887 75.4666L122.782 77.0045L136.557 213.123Z" fill="#2F2E41"/>
<path d="M213.441 423H0.558747C0.410558 423 0.268438 422.895 0.163653 422.707C0.0588674 422.52 0 422.265 0 422C0 421.735 0.0588674 421.48 0.163653 421.293C0.268438 421.105 0.410558 421 0.558747 421H213.441C213.589 421 213.732 421.105 213.836 421.293C213.941 421.48 214 421.735 214 422C214 422.265 213.941 422.52 213.836 422.707C213.732 422.895 213.589 423 213.441 423Z" fill="#CBCBCB"/>
</svg>
